<svg width="32" height="32" viewBox="0 0 32 32" fill="none" xmlns="http://www.w3.org/2000/svg">
<path d="M0.677457 0.673828C0.398942 0.952343 0.453434 1.31562 0.804606 1.49727C0.943863 1.56992 1.22843 1.58809 2.17902 1.58809H3.37785L4.64933 4.13711C5.40011 5.64473 5.98136 6.73457 6.06613 6.80117C6.24777 6.94648 6.50207 6.94648 6.68371 6.80117C6.76847 6.73457 7.34972 5.64473 8.1005 4.13711L9.37199 1.58809H11.1884H13.0048L14.2763 4.13711C15.0271 5.64473 15.6083 6.73457 15.6931 6.80117C15.8747 6.94648 16.129 6.94648 16.3107 6.80117C16.3954 6.73457 16.9767 5.64473 17.7275 4.13711L18.9989 1.58809H20.8153H22.6318L23.9032 4.13711C24.654 5.64473 25.2353 6.73457 25.32 6.80117C25.5017 6.94648 25.756 6.94648 25.9376 6.80117C26.0224 6.73457 26.6036 5.64473 27.3544 4.13711L28.6259 1.58809H29.8247C30.7753 1.58809 31.0599 1.56992 31.1991 1.49727C31.5503 1.31562 31.6048 0.952343 31.3263 0.673828L31.1507 0.498242H16.0019H0.853043L0.677457 0.673828ZM7.30734 3.35605C6.82297 4.33086 6.41125 5.14219 6.39914 5.1543C6.38097 5.17246 4.61906 1.67891 4.61906 1.61836C4.61906 1.60019 5.42433 1.58809 6.40519 1.58809H8.19132L7.30734 3.35605ZM17.7577 1.61836C17.7577 1.67891 16.0321 5.0998 16.0019 5.0998C15.9716 5.0998 14.246 1.67891 14.246 1.61836C14.246 1.60019 15.0392 1.58809 16.0019 1.58809C16.9706 1.58809 17.7577 1.60019 17.7577 1.61836ZM27.3847 1.61836C27.3847 1.67891 25.6228 5.17246 25.6046 5.1543C25.5925 5.14219 25.1808 4.33086 24.6964 3.35605L23.8124 1.58809H25.5986C26.5794 1.58809 27.3847 1.60019 27.3847 1.61836Z" fill="black"/>
<path d="M3.83321 9.67676C3.3004 9.90684 3.20958 10.1187 3.1672 11.251C3.13087 12.2561 3.14903 12.2076 2.59806 12.8918C2.48302 13.0311 2.3256 13.3035 2.25294 13.4973C2.10763 13.8484 2.10763 13.8545 2.08946 17.3057L2.0713 20.7629L1.67775 20.7992C1.16915 20.8477 0.890636 20.9869 0.696886 21.2836C0.53341 21.5258 0.53341 21.5379 0.515245 22.8336C0.497081 24.2867 0.539464 24.5229 0.872472 24.8014L1.04806 24.9527V28.0467V31.1467L1.22364 31.3223C1.32052 31.4191 1.46583 31.4979 1.53849 31.4979C1.61114 31.4979 2.51329 31.1406 3.53653 30.7047L5.39532 29.9115L10.6992 30.7047L16.0092 31.5039L21.3131 30.7107L26.6231 29.9115L28.4758 30.7047C29.499 31.1406 30.3951 31.4979 30.4678 31.4979C30.5404 31.4979 30.6858 31.4191 30.7826 31.3223L30.9582 31.1467V28.0467V24.9527L31.1338 24.8014C31.4668 24.5229 31.5092 24.2867 31.491 22.8336C31.4729 21.5379 31.4729 21.5258 31.3094 21.2836C31.0188 20.8477 30.8856 20.8113 29.2508 20.7932L27.8098 20.7689L27.5736 20.5025C27.2527 20.1393 27.2043 19.885 27.2043 18.6377V17.5721L27.5676 17.3904C28.1973 17.0756 28.6332 16.5852 29.0631 15.7254C29.4203 15.0109 29.8623 13.4367 29.8684 12.8676C29.8684 12.2258 29.9713 12.2439 26.6654 12.2439H23.8863L23.6986 12.4014C23.4686 12.5951 23.4565 12.801 23.626 13.6062C24.0619 15.6406 24.8672 17.0029 25.8965 17.4268L26.175 17.5418V18.6377C26.175 19.9152 26.1145 20.1937 25.7693 20.551L25.5453 20.7811H24.51H23.4746L23.3717 20.1453C23.184 19.0312 22.8207 18.123 22.191 17.1785C21.0709 15.4893 19.2121 14.2965 17.2141 13.9695C16.8992 13.9211 16.6207 13.8787 16.6026 13.8787C16.5783 13.8787 16.5481 13.6971 16.5359 13.4791C16.5117 13.1279 16.4875 13.0553 16.3422 12.9342C16.2514 12.8555 16.1 12.7889 16.0031 12.7889C15.9063 12.7889 15.7549 12.8555 15.6641 12.9342C15.5188 13.0553 15.4945 13.1279 15.4703 13.4791C15.4582 13.6971 15.4279 13.8787 15.4037 13.8787C15.3856 13.8787 15.107 13.9211 14.7922 13.9695C12.782 14.2965 10.9354 15.4893 9.80314 17.1967C9.15528 18.1715 8.792 19.116 8.61036 20.2967L8.53771 20.7811H8.00489H7.47208L7.45392 17.2814C7.43575 13.8242 7.43575 13.7818 7.30255 13.4549C7.22384 13.2732 7.0422 12.9705 6.89083 12.7889C6.43068 12.2379 6.41857 12.1955 6.37618 11.1783C6.34591 10.2883 6.33986 10.258 6.17032 10.04C5.89181 9.6707 5.61935 9.57988 4.77169 9.58594C4.2631 9.58594 3.98458 9.61016 3.83321 9.67676ZM5.28634 11.1662C5.28634 12.1652 5.44982 12.7223 5.89181 13.243C6.2672 13.691 6.37618 13.9574 6.37618 14.466V14.908H4.76564H3.15509L3.17931 14.4357C3.20958 13.8969 3.3004 13.6729 3.67579 13.2309C4.08751 12.7525 4.2086 12.359 4.24493 11.4387L4.26915 10.6697H4.77775H5.28634V11.1662ZM28.6877 13.5275C28.6635 13.6365 28.5969 13.8787 28.5424 14.0604L28.4395 14.3934H26.6897H24.9399L24.8369 14.0604C24.7824 13.8787 24.7219 13.6365 24.7037 13.5275L24.6674 13.3338H26.6957H28.7301L28.6877 13.5275ZM17.2807 15.0594C19.3332 15.4953 21.0346 16.8818 21.9004 18.8314C22.0942 19.2674 22.3606 20.2846 22.3606 20.5752V20.7811H16.0031H9.64571V20.5752C9.64571 20.2846 9.91212 19.2674 10.1059 18.8314C11.0443 16.7123 12.994 15.2531 15.2645 14.9686C15.7731 14.902 16.7479 14.9504 17.2807 15.0594ZM27.9006 15.6406C27.6524 16.1129 27.0772 16.5428 26.6897 16.5428C26.3022 16.5428 25.727 16.1129 25.4727 15.6164L25.3818 15.4529H26.6897H27.9975L27.9006 15.6406ZM6.37618 18.3895V20.7811H4.77169H3.1672V18.3895V15.9979H4.77169H6.37618V18.3895ZM30.4133 22.9305V23.99H16.0031H1.59298V22.9305V21.8709H16.0031H30.4133V22.9305ZM29.9168 27.6047C29.9229 29.3545 29.9108 30.1053 29.8684 30.1053C29.832 30.1053 29.2145 29.857 28.5 29.5482L27.2043 28.9973V27.7318C27.2043 26.4725 27.2043 26.4664 27.0529 26.3211C26.8531 26.1152 26.5262 26.1152 26.3264 26.3211C26.175 26.4664 26.175 26.4725 26.175 27.6773V28.8822L26.0115 28.9186C25.9147 28.9367 23.8258 29.2516 21.3615 29.6209C18.8973 29.9902 16.8084 30.3051 16.7176 30.3232L16.5481 30.3596V28.4523V26.5451L16.3906 26.3574C16.1666 26.091 15.8397 26.091 15.6156 26.3574L15.4582 26.5451V28.4523V30.3596L15.2947 30.3232C15.1979 30.3051 13.1211 29.9902 10.675 29.6209C8.22892 29.2576 6.134 28.9428 6.03107 28.9246L5.83126 28.8883V27.6773C5.83126 26.4725 5.83126 26.4664 5.67989 26.3211C5.48009 26.1152 5.15314 26.1152 4.95333 26.3211C4.80196 26.4664 4.80196 26.4725 4.80196 27.7318V29.0033L3.51232 29.5543C2.80392 29.857 2.19239 30.1053 2.15001 30.1053C2.09552 30.1053 2.07736 29.518 2.07736 27.635C2.07736 26.2727 2.09552 25.1404 2.11974 25.1223C2.1379 25.098 8.39845 25.0859 16.0274 25.092L29.8986 25.1102L29.9168 27.6047Z" fill="black"/>
<path d="M16.8193 16.1918C16.6316 16.3008 16.5529 16.434 16.5469 16.6459C16.5469 16.9244 16.7527 17.1182 17.1826 17.2393C18.1695 17.5117 19.1686 18.2928 19.6893 19.1889C19.9557 19.649 20.0707 19.752 20.3311 19.752C20.549 19.752 20.8457 19.4492 20.8457 19.2312C20.8457 19.1404 20.7609 18.9164 20.658 18.7287C19.9799 17.5299 18.884 16.652 17.5459 16.2342C17.1281 16.101 16.9889 16.0949 16.8193 16.1918Z" fill="black"/>
</svg>
